<?xml version="1.0" standalone="no"?>
<svg xmlns:xlink="http://www.w3.org/1999/xlink" id="wave" style="transform:rotate(180deg); transition: 0.3s" viewBox="0 0 1440 100" version="1.1" xmlns="http://www.w3.org/2000/svg"><defs><linearGradient id="sw-gradient-0" x1="0" x2="0" y1="1" y2="0"><stop stop-color="rgba(73, 83, 166, 1)" offset="0%"/><stop stop-color="rgba(73, 83, 166, 1)" offset="100%"/></linearGradient></defs><path style="transform:translate(0, 0px); opacity:1" fill="url(#sw-gradient-0)" d="M0,20L10,21.7C20,23,40,27,60,30C80,33,100,37,120,33.3C140,30,160,20,180,26.7C200,33,220,57,240,61.7C260,67,280,53,300,43.3C320,33,340,27,360,26.7C380,27,400,33,420,35C440,37,460,33,480,35C500,37,520,43,540,40C560,37,580,23,600,23.3C620,23,640,37,660,46.7C680,57,700,63,720,66.7C740,70,760,70,780,71.7C800,73,820,77,840,66.7C860,57,880,33,900,31.7C920,30,940,50,960,48.3C980,47,1000,23,1020,15C1040,7,1060,13,1080,13.3C1100,13,1120,7,1140,10C1160,13,1180,27,1200,28.3C1220,30,1240,20,1260,21.7C1280,23,1300,37,1320,48.3C1340,60,1360,70,1380,73.3C1400,77,1420,73,1430,71.7L1440,70L1440,100L1430,100C1420,100,1400,100,1380,100C1360,100,1340,100,1320,100C1300,100,1280,100,1260,100C1240,100,1220,100,1200,100C1180,100,1160,100,1140,100C1120,100,1100,100,1080,100C1060,100,1040,100,1020,100C1000,100,980,100,960,100C940,100,920,100,900,100C880,100,860,100,840,100C820,100,800,100,780,100C760,100,740,100,720,100C700,100,680,100,660,100C640,100,620,100,600,100C580,100,560,100,540,100C520,100,500,100,480,100C460,100,440,100,420,100C400,100,380,100,360,100C340,100,320,100,300,100C280,100,260,100,240,100C220,100,200,100,180,100C160,100,140,100,120,100C100,100,80,100,60,100C40,100,20,100,10,100L0,100Z"/></svg>